<?xml version="1.0" standalone="no"?>
<!DOCTYPE svg PUBLIC "-//W3C//DTD SVG 20010904//EN"
 "http://www.w3.org/TR/2001/REC-SVG-20010904/DTD/svg10.dtd">
<svg version="1.0" xmlns="http://www.w3.org/2000/svg"
 width="512.000000pt" height="512.000000pt" viewBox="0 0 512.000000 512.000000"
 preserveAspectRatio="xMidYMid meet">
<metadata>
Created by potrace 1.11, written by Peter Selinger 2001-2013
</metadata>
<g transform="translate(0.000000,512.000000) scale(0.100000,-0.100000)"
fill="#000000" stroke="none">
<path d="M0 2560 l0 -2560 2560 0 2560 0 0 2560 0 2560 -2560 0 -2560 0 0
-2560z m1472 2344 c437 -152 733 -401 908 -767 47 -97 50 -100 50 -62 -1 125
-47 356 -99 491 -52 136 -167 286 -271 356 -24 16 3 17 478 17 l503 1 -63 -48
c-187 -143 -306 -423 -333 -787 l-6 -80 36 75 c55 116 79 158 144 250 179 253
447 441 799 559 90 30 98 31 270 31 l177 0 -162 -84 c-542 -280 -953 -680
-1203 -1174 -33 -64 -74 -156 -92 -205 -17 -48 -32 -86 -33 -85 -1 2 -19 46
-40 98 -225 571 -722 1081 -1350 1386 l-130 64 157 0 c154 0 158 -1 260 -36z
m3422 -2302 c-14 -53 -46 -155 -71 -227 -232 -677 -584 -1126 -1141 -1455 -40
-23 -71 -44 -69 -47 6 -5 161 32 287 68 456 133 801 357 1002 649 16 24 17 15
17 -196 l1 -221 -64 -73 c-224 -254 -480 -381 -856 -425 -69 -8 -165 -15 -215
-16 -49 0 -110 -4 -134 -7 -44 -7 -41 -8 145 -69 471 -155 690 -189 911 -144
51 11 118 31 149 45 31 14 58 26 60 26 2 0 4 -72 4 -160 l0 -160 -433 0 c-431
0 -434 0 -515 24 -335 101 -699 312 -1030 600 l-93 81 133 6 c255 13 460 89
672 248 482 364 850 1138 1076 2269 75 376 150 911 177 1267 5 57 9 -352 11
-943 l2 -1044 -26 -96z m-3382 152 l3 -826 505 -275 c278 -151 508 -275 512
-276 4 -1 237 122 517 273 l510 275 1 828 0 827 95 0 95 0 -2 -882 -3 -883
-604 -327 -603 -327 -607 329 -606 328 -3 881 -2 881 95 0 95 0 2 -826z m1856
-690 c-7 -6 -168 -98 -358 -204 -190 -107 -355 -200 -367 -208 l-23 -14 0 743
1 744 377 227 377 228 3 -752 c2 -594 -1 -755 -10 -764z"/>
</g>
</svg>
